<svg xmlns="http://www.w3.org/2000/svg">
  <svg id="ico-logo-text" viewBox="0 0 176 32">
        <path d="M146.7,11.86v4.23c0,4.78-7.13,4.78-7.13,0V11.86h-1.31v4.23c0,6.55,9.7,6.55,9.7,0V11.86Z"></path>
        <path d="M88.62,11.9H83v8.83h5.83C94.26,20.36,94.17,12,88.62,11.9Zm-.14,7.48h-4.2V13.16h4.2c4.1,0,4.1,6.22,0,6.22Z"></path>
        <path d="M169.58,13.21h6.53v-1.3h-6.62c-5.87.09-5.78,8.82.14,8.82h6.48V16h-4.52v1.3h3.22v2.13h-5.18C165.58,19.39,165.53,13.21,169.58,13.21Z"></path>
        <path d="M160.17,20.69h2l-3.73-3.44c3.4-.14,3.35-5.39-.14-5.39h-6v8.83h1.3V17.25h2.85ZM153.59,16V13.16h4.71a1.4,1.4,0,0,1,0,2.79Z"></path>
        <rect x="61.34" y="11.86" width="1.3" height="8.83"></rect>
        <path d="M76.78,11.86v7l-7.6-7h-1.3v8.82h1.31v-7l7.6,7H78V11.86Z"></path>
        <path d="M118.87,11.86v7l-7.6-7H110v8.82h1.3v-7l7.61,7h1.25V11.86Z"></path>
        <path d="M133.27,16.18a2.73,2.73,0,0,0-.63-3.81,2.65,2.65,0,0,0-1.56-.51h-6v8.82h7.41C135,20.41,135.18,17.06,133.27,16.18Zm-2.19-3a1.37,1.37,0,0,1,.08,2.74h-.08c-1.3,0-4.71,0-4.71,0V13.21Zm1.12,6.17h-5.82V17.25h5.82a1.07,1.07,0,1,1,0,2.13Z"></path>
        <path d="M98.31,19.38V17.25H103V16H98.31V13.21h6.3V11.86H97v8.82h9v-1.3Z"></path>
        <path d="M55,11.48V16H47.31V11.48H46v9.21h1.31V17.25H55v3.44h1.26V11.48Z"></path>
        <path d="M22.61,7.15V21.29a.42.42,0,0,1-.43.4h-2a.42.42,0,0,1-.43-.4V18H11.26v3.29a.42.42,0,0,1-.43.4h-2a.42.42,0,0,1-.43-.4V7.15A11,11,0,0,0,4,15.91a11.5,11.5,0,0,0,23,0A11,11,0,0,0,22.61,7.15Z"></path>
        <path d="M15.5,0A15.5,15.5,0,1,0,31,15.5,15.5,15.5,0,0,0,15.5,0Zm0,29.32A13.75,13.75,0,0,1,11.3,2.47V15.21h8.4V2.47a13.75,13.75,0,0,1-4.2,26.85Z"></path>
    </svg>
</svg>