<?xml version="1.0" encoding="UTF-8"?>
<svg width="373px" height="98px" viewBox="0 0 373 98" version="1.1" xmlns="http://www.w3.org/2000/svg" xmlns:xlink="http://www.w3.org/1999/xlink">
    <title>4BAEC1C0-AC3C-4B65-999C-2879F247B2AC</title>
    <defs>
        <polygon id="path-1" points="0 0 42 0 42 30 0 30"></polygon>
        <polygon id="path-3" points="0 98 373 98 373 0 0 0"></polygon>
    </defs>
    <g id="Logos" stroke="none" stroke-width="1" fill="none" fill-rule="evenodd">
        <g id="logos" transform="translate(-155.000000, -540.000000)">
            <g id="logo_grupo_sc" transform="translate(155.000000, 540.000000)">
                <path d="M16.1725333,61.9863149 C22.4983428,61.9863149 25.3206893,66.8438848 25.3206893,69 C26.8459213,69 30.3020621,68.9927876 32,69 C31.2836951,64.1175872 27.9278612,56 16.2878054,56 C4.692645,56 1.9026556,64.7178215 8.51158962,68.6033165 C8.04847888,64.4301258 11.5296965,61.9863149 16.1725333,61.9863149" id="Fill-1" fill="#19D596"></path>
                <path d="M22.095414,6.47561983 C26.4690562,6.47561983 30.3979005,8.40743802 33.1064958,11.477686 L37,6.64958678 C33.1495538,2.55578512 27.7291135,0 21.7180467,0 C10.4957368,0 4.75845421,7.76528926 9.90186061,13 L9.90714132,13 C12.575522,9.05991736 17.0373113,6.47561983 22.095414,6.47561983" id="Fill-3" fill="#19D596"></path>
                <path d="M139.975219,61.3943133 C147.385277,61.3943133 152.348951,65.8718033 153.373982,70 L160,70 C159.073743,65.3480677 153.724402,55 139.975219,55 C129.888031,55 122.325509,61.6042977 127.880594,67.8494975 C130.271239,64.6118964 134.095534,61.3943133 139.975219,61.3943133" id="Fill-5" fill="#19D596"></path>
                <path d="M96.4062951,25.6121858 C96.4062951,30.3522962 94.3523232,35.8684638 87.4793699,35.8684638 C82.6325047,35.8684638 80.5937049,32.0034816 80.5937049,28.133264 L80.5937049,11 L74,11 L74,28.936304 C74,36.0976161 78.8111903,42 86.6034897,42 C92.2118294,42 95.509912,39.2320494 96.4062951,38.4169276 L103,41.2569665 L103,11 L96.4062951,11 L96.4062951,25.6121858 Z" id="Fill-7" fill="#171669"></path>
                <path d="M127.057844,36.9474793 C121.460594,36.9474793 117.47201,32.2226455 117.47201,26.9734155 C117.47201,21.0441725 122.267566,16.938969 127.057844,16.938969 C133.718202,16.938969 136.643677,22.6047982 136.643677,26.9734155 C136.643677,33.2313179 132.205333,36.9474793 127.057844,36.9474793 M127.751563,11 C122.166897,11 118.472201,13.7998865 117.47201,14.6707732 L111,11.6925758 L111,50.6279786 L117.47201,56 L117.47201,39.2736262 C119.543021,40.7665748 122.973463,42.9443994 127.751563,42.9443994 C137.453084,42.9443994 143,34.5913438 143,26.9734155 C143,19.1297617 137.252153,11 127.751563,11" id="Fill-9" fill="#171669"></path>
                <g id="Group-13" transform="translate(0.000000, 13.000000)">
                    <mask id="mask-2" fill="white">
                        <use xlink:href="#path-1"></use>
                    </mask>
                    <g id="Clip-12"></g>
                    <path d="M42,11.7127019 L35.7637573,5.30729869 L15.6334252,5.30729869 L21.8700734,11.7127019 L35.9194606,11.7127019 C34.4755555,18.4738232 28.568155,23.5351729 21.4958178,23.5351729 C13.3412614,23.5351729 6.73076299,16.8074775 6.73076299,8.51123827 C6.73076299,5.35062863 7.69012257,2.417398 9.32946778,0 L9.32460205,0 L1.72473876,0 C0.617785398,2.60887507 -0.000162190968,5.48350711 -0.000162190968,8.51123827 C-0.000162190968,20.3799279 9.45516578,30 21.1166964,30 C31.7089831,30 40.4810816,22.0636056 42,11.7127019" id="Fill-11" fill="#171669" mask="url(#mask-2)"></path>
                </g>
                <path d="M89.3711533,66 C84.7536696,66 81.4210116,67.9375 79.5486257,69.595913 L73,66.6858371 L73,97 L79.5486257,97 L79.5486257,82.3876013 C79.5486257,77.7349434 81.5352366,72.0742699 88.4935109,72.0742699 C94.3650043,72.0742699 95.448909,77.502975 95.448909,79.8665558 L95.448909,97 L102,97 L102,79.063929 C102,74.3186448 99.5347124,66 89.3711533,66" id="Fill-14" fill="#171669"></path>
                <path d="M49.0940604,92.279248 C45.0430567,92.279248 43.4389289,89.8487809 43.4389289,88.1794839 C43.4389289,84.8015122 46.8244522,83.8487301 49.7005901,83.8487301 L58.5021202,83.8487301 C58.5021202,87.5258925 55.9033004,92.279248 49.0940604,92.279248 M51.8855084,66 C44.4776265,66 39.3185956,70.2227691 38.3853453,76.7428513 L44.8657889,76.7428513 C44.8657889,73.9551417 48.2944874,71.9468703 52.124633,71.9468703 C56.4969605,71.9468703 58.5021202,74.8401289 58.5021202,78.3013219 L49.7599561,78.3013219 C40.9173265,78.3013219 37,83.0116459 37,88.2399716 C37,92.8751935 40.4262076,98 48.6390594,98 C53.6876612,98 57.2707944,95.6251491 58.5021202,94.5164793 L65,97.2485728 L65,77.7232385 C65,73.0226575 62.5095336,66 51.8855084,66" id="Fill-16" fill="#171669"></path>
                <path d="M16.5,72.7291758 C13.2660713,72.0598867 8.98262868,71.5362566 8.51300023,68 L1.41178687,68 C2.37674278,74.7679908 4.91762755,77.1517661 16.5,79.4666318 C21.9664255,80.5576309 26.2167081,80.8435849 26.2167081,85.4960112 C26.2167081,90.2280755 21.499284,91.7787467 17.6651594,91.7787467 C12.7297083,91.7787467 7.01416836,88.8428697 7.01416836,84.1446413 L0,84.1446413 C0,90.8437225 6.23905343,98 17.2519029,98 C29.7660713,98 33,89.8802267 33,85.2612236 C33,76.5744938 26.5221946,74.8038897 16.5,72.7291758" id="Fill-18" fill="#171669"></path>
                <mask id="mask-4" fill="white">
                    <use xlink:href="#path-3"></use>
                </mask>
                <g id="Clip-21"></g>
                <polygon id="Fill-20" fill="#171669" mask="url(#mask-4)" points="366 97 373 97 373 53 366 53"></polygon>
                <path d="M217,78.6386179 C214.809574,78.1836147 211.556646,77.8142544 211.556646,75.2985451 C211.556646,72.9967402 213.756764,71.6621723 216.784754,71.6621723 C220.645864,71.6621723 223.166227,74.0849326 223.516356,75.992212 L229.750023,75.992212 C229.227455,72.4613706 226.326675,66 216.897425,66 C209.278587,66 205.120251,70.3779348 205.120251,75.6480168 C205.120251,81.0086125 208.976111,83.3534418 217,84.7659407 C220.503308,85.3841119 223.621354,86.2312054 223.621354,88.4700973 C223.621354,90.2771217 222.000746,92.2801913 217.87512,92.2801913 C213.644497,92.2801913 210.67143,89.9377973 210.351185,87.4874364 L204,87.4874364 C204,91.7902815 207.623249,98 217.530241,98 C223.203784,98 230,95.424219 230,88.1786679 C230,81.9989853 225.311422,80.3652761 217,78.6386179" id="Fill-22" fill="#171669" mask="url(#mask-4)"></path>
                <polygon id="Fill-23" fill="#171669" mask="url(#mask-4)" points="284 53 275.069976 53 270 62 277.030965 62"></polygon>
                <path d="M312.057844,91.9092272 C308.418353,91.9092272 302.47201,89.1009166 302.47201,81.7879591 C302.47201,76.9909255 306.249515,71.6082959 312.057844,71.6082959 C317.245519,71.6082959 321.646113,75.4989719 321.646113,81.7879591 C321.646113,87.1097261 318.104855,91.9092272 312.057844,91.9092272 M312.751563,65.5787968 C307.460784,65.5787968 303.472201,68.420006 302.47201,69.3062133 L302.47201,53 L296,53 L296,97.235929 L302.47201,94.2721723 C303.472201,95.1534448 306.8929,98 312.751563,98 C320.424695,98 328,91.9450044 328,81.7879591 C328,75.4989719 323.601842,65.5787968 312.751563,65.5787968" id="Fill-24" fill="#171669" mask="url(#mask-4)"></path>
                <polygon id="Fill-25" fill="#171669" mask="url(#mask-4)" points="191 97 198 97 198 66 191 66"></polygon>
                <polygon id="Fill-26" fill="#171669" mask="url(#mask-4)" points="191 62 198 62 198 56 191 56"></polygon>
                <path d="M182.12171,66 C177.364179,66 174.234842,67.9397651 172.451274,69.5956327 L166,66.6857837 L166,97 L172.451274,97 L172.451274,82.3891429 C172.451274,75.9734613 175.703211,72.0737965 181.25744,72.0737965 C182.926096,72.0737965 185.503935,72.5924632 185.503935,72.5924632 L186,66.550882 C184.667179,66.1896677 183.3643,66 182.12171,66" id="Fill-27" fill="#171669" mask="url(#mask-4)"></path>
                <path d="M64.1217099,11 C59.3641789,11 56.2348419,12.9397651 54.4512735,14.5956327 L48,11.6857837 L48,42 L54.4512735,42 L54.4512735,27.3891429 C54.4512735,20.9734613 57.7032107,17.0737965 63.25744,17.0737965 C64.926096,17.0737965 67.5039349,17.5924632 67.5039349,17.5924632 L68,11.550882 C66.6671792,11.1896677 65.3643003,11 64.1217099,11" id="Fill-28" fill="#171669" mask="url(#mask-4)"></path>
                <path d="M125.709076,76.5105359 C125.709076,88.0741362 135.841963,91.5410706 140.161644,91.5385949 C148.490601,91.5361191 152.845223,85.6903609 153.448971,82.5580711 L160,82.5580711 C158.676712,89.113969 151.972511,98 140.161644,98 C124.330532,98 119,83.7666703 119,76.5105359 C119,73.6056063 119.747168,69.9216274 120.690169,68 L128.18948,68 C126.564318,70.4988996 125.709076,74.4642936 125.709076,76.5105359" id="Fill-29" fill="#171669" mask="url(#mask-4)"></path>
                <path d="M251.835462,72.6070739 L255,66.2087589 L243.698139,66.2087589 L243.698139,57 L237,57 L237,87.1473498 C237,92.7191848 240.205776,98 247.72702,98 C250.277562,98 252.939322,96.6648536 254.071508,95.8202365 L254.071508,88.8959423 C252.162871,90.3122939 249.885587,91.662692 248.023605,91.662692 C244.864066,91.662692 243.698139,89.4932337 243.698139,86.8567421 L243.698139,72.6070739 L251.835462,72.6070739 Z" id="Fill-30" fill="#171669" mask="url(#mask-4)"></path>
                <path d="M274.000201,92.0607928 C268.55965,92.0607928 264.150643,87.5571827 264.150643,82.0014262 C264.150643,76.4456698 268.55965,71.9392072 274.000201,71.9392072 C279.440752,71.9392072 283.849759,76.4456698 283.849759,82.0014262 C283.849759,87.5571827 279.440752,92.0607928 274.000201,92.0607928 M274.000201,66 C265.164485,66 258,73.162908 258,82.0014262 C258,90.837092 265.164485,98 274.000201,98 C282.835917,98 290,90.837092 290,82.0014262 C290,73.162908 282.835917,66 274.000201,66" id="Fill-31" fill="#171669" mask="url(#mask-4)"></path>
                <path d="M163,36.0607928 C157.559517,36.0607928 153.150566,31.5571827 153.150566,25.9985738 C153.150566,20.4432248 157.559517,15.9392072 163,15.9392072 C168.440483,15.9392072 172.849434,20.4432248 172.849434,25.9985738 C172.849434,31.5571827 168.440483,36.0607928 163,36.0607928 M163,10 C154.161981,10 147,17.162908 147,25.9985738 C147,34.837092 154.161981,42 163,42 C171.835605,42 179,34.837092 179,25.9985738 C179,17.162908 171.835605,10 163,10" id="Fill-32" fill="#171669" mask="url(#mask-4)"></path>
                <path d="M344.09406,92.279248 C340.045548,92.279248 338.438929,89.8487809 338.438929,88.1823256 C338.438929,84.8015122 341.824452,83.8487301 344.70059,83.8487301 L353.50212,83.8487301 C353.50212,87.5258925 350.9033,92.279248 344.09406,92.279248 M346.885508,66 C339.477627,66 334.318596,70.2227691 333.385345,76.7428513 L339.865789,76.7428513 C339.865789,73.9551417 343.294487,71.9468703 347.124633,71.9468703 C351.496961,71.9468703 353.50212,74.8401289 353.50212,78.3013219 L344.759956,78.3013219 C335.917326,78.3013219 332,83.0116459 332,88.2399716 C332,92.8751935 335.426208,98 343.639059,98 C348.687661,98 352.270794,95.6251491 353.50212,94.5164793 L360,97.2485728 L360,77.7256743 C360,73.0226575 357.509534,66 346.885508,66" id="Fill-33" fill="#171669" mask="url(#mask-4)"></path>
            </g>
        </g>
    </g>
</svg>